<svg id="Calque_1" data-name="Calque 1" xmlns="http://www.w3.org/2000/svg" viewBox="0 0 80.05 104.72"><defs><style>.cls-1{fill:#f8bd2d;}</style></defs><title>griplogotestsvg</title><g id="Groupe_9" data-name="Groupe 9"><path id="Tracé_108" data-name="Tracé 108" class="cls-1" d="M27.73,14.37l-.1,5.08-.11,5.08-4.66-2.62-4.65-2.63L23,16.83Z" transform="translate(-1.53 0.04)"/><path id="Tracé_109" data-name="Tracé 109" class="cls-1" d="M18.31,31.1V20.94L23,23.48,27.73,26,23,28.57Z" transform="translate(-1.53 0.04)"/><path id="Tracé_110" data-name="Tracé 110" class="cls-1" d="M27.73,27.67l-.1,5.08-.11,5.08L22.86,35.2l-4.65-2.62L23,30.12Z" transform="translate(-1.53 0.04)"/><path id="Tracé_111" data-name="Tracé 111" class="cls-1" d="M18.26,44.62V34.45L23,37l4.7,2.54L23,42.08Z" transform="translate(-1.53 0.04)"/><path id="Tracé_112" data-name="Tracé 112" class="cls-1" d="M27.73,41,27.63,46l-.11,5.08-4.65-2.63-4.66-2.63L23,43.41Z" transform="translate(-1.53 0.04)"/><path id="Tracé_113" data-name="Tracé 113" class="cls-1" d="M18.31,57.52V47.36L23,49.9l4.7,2.55L23,55Z" transform="translate(-1.53 0.04)"/><path id="Tracé_114" data-name="Tracé 114" class="cls-1" d="M27.39,54l-.1,5.08-.11,5.08-4.65-2.62L17.87,59l4.76-2.45Z" transform="translate(-1.53 0.04)"/><path id="Tracé_115" data-name="Tracé 115" class="cls-1" d="M18.26,70.77V60.61L23,63.16l4.7,2.54L23,68.24Z" transform="translate(-1.53 0.04)"/><path id="Tracé_116" data-name="Tracé 116" class="cls-1" d="M27.73,67.13l-.1,5.08-.11,5.08-4.66-2.63L18.21,72,23,69.58Z" transform="translate(-1.53 0.04)"/><path id="Tracé_117" data-name="Tracé 117" class="cls-1" d="M29,80V69.79l4.71,2.54,4.71,2.54L33.7,77.41Z" transform="translate(-1.53 0.04)"/><path id="Tracé_118" data-name="Tracé 118" class="cls-1" d="M40.57,75.5l-.11,5.08-.1,5.08L35.7,83l-4.65-2.62L35.81,78Z" transform="translate(-1.53 0.04)"/><path id="Tracé_119" data-name="Tracé 119" class="cls-1" d="M54.67,14.87l.1,5.08.1,5.08,4.66-2.62,4.65-2.63-4.76-2.45Z" transform="translate(-1.53 0.04)"/><path id="Tracé_120" data-name="Tracé 120" class="cls-1" d="M64.09,31.6V21.44L59.38,24l-4.7,2.54,4.71,2.54Z" transform="translate(-1.53 0.04)"/><path id="Tracé_121" data-name="Tracé 121" class="cls-1" d="M54.67,28.16l.1,5.08.1,5.08,4.66-2.62,4.65-2.63-4.76-2.45Z" transform="translate(-1.53 0.04)"/><path id="Tracé_122" data-name="Tracé 122" class="cls-1" d="M64.14,45.11V35l-4.71,2.54L54.72,40l4.71,2.53Z" transform="translate(-1.53 0.04)"/><path id="Tracé_123" data-name="Tracé 123" class="cls-1" d="M54.67,41.45l.1,5.08.1,5.08L59.53,49l4.65-2.63-4.76-2.45Z" transform="translate(-1.53 0.04)"/><path id="Tracé_124" data-name="Tracé 124" class="cls-1" d="M64.09,58V47.86L59.38,50.4l-4.7,2.54,4.71,2.54Z" transform="translate(-1.53 0.04)"/><path id="Tracé_125" data-name="Tracé 125" class="cls-1" d="M55,54.54l.1,5.08.1,5.08,4.66-2.63,4.66-2.62L59.77,57Z" transform="translate(-1.53 0.04)"/><path id="Tracé_126" data-name="Tracé 126" class="cls-1" d="M64.14,71.27V61.11l-4.71,2.54-4.7,2.55,4.71,2.53Z" transform="translate(-1.53 0.04)"/><path id="Tracé_127" data-name="Tracé 127" class="cls-1" d="M54.67,67.62l.1,5.08.1,5.08,4.66-2.62,4.65-2.63-4.76-2.45Z" transform="translate(-1.53 0.04)"/><path id="Tracé_128" data-name="Tracé 128" class="cls-1" d="M53.41,80.44V70.27L48.7,72.82,44,75.36,48.7,77.9Z" transform="translate(-1.53 0.04)"/><path id="Tracé_129" data-name="Tracé 129" class="cls-1" d="M41.83,76l.1,5.08.1,5.08,4.66-2.62,4.66-2.63-4.76-2.45Z" transform="translate(-1.53 0.04)"/><path id="Tracé_130" data-name="Tracé 130" class="cls-1" d="M11.05,57,11,62.06l-.1,5.08L6.19,64.51,1.53,61.88,6.3,59.43Z" transform="translate(-1.53 0.04)"/><path id="Tracé_131" data-name="Tracé 131" class="cls-1" d="M1.62,73.71V63.54l4.71,2.55L11,68.63,6.33,71.17Z" transform="translate(-1.53 0.04)"/><path id="Tracé_132" data-name="Tracé 132" class="cls-1" d="M11.05,70.27,11,75.35l-.1,5.08L6.19,77.8,1.53,75.18,6.3,72.72Z" transform="translate(-1.53 0.04)"/><path id="Tracé_133" data-name="Tracé 133" class="cls-1" d="M1.57,87.22V77.06L6.28,79.6,11,82.14l-4.7,2.54Z" transform="translate(-1.53 0.04)"/><path id="Tracé_134" data-name="Tracé 134" class="cls-1" d="M11.7,82.72l-.11,5.08-.1,5.08L6.83,90.26,2.18,87.63l4.76-2.45Z" transform="translate(-1.53 0.04)"/><path id="Tracé_135" data-name="Tracé 135" class="cls-1" d="M59.48,97V86.86l4.71,2.55L68.9,92l-4.71,2.54Z" transform="translate(-1.53 0.04)"/><path id="Tracé_136" data-name="Tracé 136" class="cls-1" d="M23.57,88.59l-.11,5.08-.1,5.08L18.7,96.12,14.05,93.5,18.81,91Z" transform="translate(-1.53 0.04)"/><path id="Tracé_137" data-name="Tracé 137" class="cls-1" d="M46.64,103.4V93.24l4.71,2.54,4.71,2.55-4.71,2.53Z" transform="translate(-1.53 0.04)"/><path id="Tracé_138" data-name="Tracé 138" class="cls-1" d="M35.8,94.51l-.1,5.08-.1,5.08L31,102.05l-4.66-2.63L31.05,97Z" transform="translate(-1.53 0.04)"/><path id="Tracé_139" data-name="Tracé 139" class="cls-1" d="M12.67,92.88V82.72l4.7,2.55,4.71,2.54-4.71,2.54Z" transform="translate(-1.53 0.04)"/><path id="Tracé_140" data-name="Tracé 140" class="cls-1" d="M58.17,87.8l-.1,5.08L58,98l-4.66-2.62-4.65-2.63,4.76-2.45Z" transform="translate(-1.53 0.04)"/><path id="Tracé_141" data-name="Tracé 141" class="cls-1" d="M71.72,28.89l.1,5.09.1,5.08,4.66-2.63,4.66-2.62-4.77-2.46Z" transform="translate(-1.53 0.04)"/><path id="Tracé_142" data-name="Tracé 142" class="cls-1" d="M81.15,45.62V35.46L76.44,38l-4.71,2.55,4.71,2.54Z" transform="translate(-1.53 0.04)"/><path id="Tracé_143" data-name="Tracé 143" class="cls-1" d="M71.72,42.18l.1,5.08.1,5.09,4.66-2.63,4.66-2.63-4.77-2.45Z" transform="translate(-1.53 0.04)"/><path id="Tracé_144" data-name="Tracé 144" class="cls-1" d="M81.2,59.14V49l-4.71,2.55-4.71,2.54,4.71,2.54Z" transform="translate(-1.53 0.04)"/><path id="Tracé_145" data-name="Tracé 145" class="cls-1" d="M71.72,55.47l.1,5.09.1,5.08L76.58,63l4.66-2.62-4.77-2.46Z" transform="translate(-1.53 0.04)"/><path id="Tracé_146" data-name="Tracé 146" class="cls-1" d="M81.15,72V61.87l-4.71,2.55L71.73,67l4.71,2.54Z" transform="translate(-1.53 0.04)"/><path id="Tracé_147" data-name="Tracé 147" class="cls-1" d="M72.06,68.56l.11,5.08.1,5.08,4.65-2.62,4.66-2.63L76.82,71Z" transform="translate(-1.53 0.04)"/><path id="Tracé_148" data-name="Tracé 148" class="cls-1" d="M81.2,85.29V75.13l-4.71,2.54-4.71,2.55,4.71,2.54Z" transform="translate(-1.53 0.04)"/><path id="Tracé_149" data-name="Tracé 149" class="cls-1" d="M71.2,81.07l.1,5.08.11,5.09,4.65-2.63L80.72,86,76,83.53Z" transform="translate(-1.53 0.04)"/><path id="Tracé_150" data-name="Tracé 150" class="cls-1" d="M70.46,91.23V81.07l-4.71,2.55L61,86.16l4.71,2.54Z" transform="translate(-1.53 0.04)"/><path id="Tracé_151" data-name="Tracé 151" class="cls-1" d="M24.78,98.75V88.58l4.71,2.55,4.71,2.54-4.71,2.54Z" transform="translate(-1.53 0.04)"/><path id="Tracé_152" data-name="Tracé 152" class="cls-1" d="M45.65,0,45.54,5l-.1,5.08L40.78,7.49,36.13,4.87l4.76-2.46Z" transform="translate(-1.53 0.04)"/><path id="Tracé_153" data-name="Tracé 153" class="cls-1" d="M36.35,6.75l.1,5.08.11,5.08,4.65-2.63,4.66-2.62L41.11,9.2Z" transform="translate(-1.53 0.04)"/><path id="Tracé_154" data-name="Tracé 154" class="cls-1" d="M45.77,23.47V13.31l-4.71,2.54-4.7,2.55,4.71,2.54Z" transform="translate(-1.53 0.04)"/><path id="Tracé_155" data-name="Tracé 155" class="cls-1" d="M36.35,20l.1,5.08.11,5.08,4.65-2.62L45.87,25,41.11,22.5Z" transform="translate(-1.53 0.04)"/><path id="Tracé_156" data-name="Tracé 156" class="cls-1" d="M45.82,37V26.83l-4.71,2.54L36.4,31.92l4.72,2.54Z" transform="translate(-1.53 0.04)"/><path id="Tracé_157" data-name="Tracé 157" class="cls-1" d="M36.35,33.33l.1,5.08.11,5.08,4.65-2.62,4.66-2.63-4.76-2.45Z" transform="translate(-1.53 0.04)"/><path id="Tracé_158" data-name="Tracé 158" class="cls-1" d="M45.77,49.9V39.73l-4.71,2.55-4.71,2.54,4.71,2.54Z" transform="translate(-1.53 0.04)"/><path id="Tracé_159" data-name="Tracé 159" class="cls-1" d="M36.69,46.42l.1,5.08.1,5.08L41.55,54l4.65-2.62-4.76-2.46Z" transform="translate(-1.53 0.04)"/><path id="Tracé_160" data-name="Tracé 160" class="cls-1" d="M45.82,63.15V53l-4.7,2.54-4.71,2.55,4.71,2.53Z" transform="translate(-1.53 0.04)"/><path id="Tracé_161" data-name="Tracé 161" class="cls-1" d="M36.69,59.62l.1,5.08.1,5.08,4.66-2.62,4.65-2.63-4.76-2.45Z" transform="translate(-1.53 0.04)"/></g></svg>